# Created by Metasequoia

mtllib cone.mtl

v 0.000000 0.000000 -100.000000
v 30.901701 0.000000 -95.105652
v 58.778526 0.000000 -80.901703
v 80.901703 0.000000 -58.778526
v 95.105652 0.000000 -30.901697
v 100.000000 0.000000 0.000000
v 95.105652 0.000000 30.901705
v 80.901703 0.000000 58.778519
v 58.778519 0.000000 80.901703
v 30.901680 0.000000 95.105667
v 0.000000 0.000000 100.000000
v -30.901741 0.000000 95.105637
v -58.778576 0.000000 80.901665
v -80.901741 0.000000 58.778465
v -95.105675 0.000000 30.901619
v -100.000000 0.000000 0.000000
v -95.105621 0.000000 -30.901804
v -80.901627 0.000000 -58.778622
v -58.778419 0.000000 -80.901779
v -30.901560 0.000000 -95.105690
v 0.000000 200.000000 0.000000
v 0.000000 0.000000 0.000000
# 22 vertices

vt 0.00000 1.00000
vt 0.02500 0.00000
vt 0.05000 1.00000
vt 0.05000 0.00000
vt 0.10000 1.00000
vt 0.07500 0.00000
vt 0.15000 1.00000
vt 0.10000 0.00000
vt 0.20000 1.00000
vt 0.12500 0.00000
vt 0.25000 1.00000
vt 0.15000 0.00000
vt 0.30000 1.00000
vt 0.17500 0.00000
vt 0.35000 1.00000
vt 0.20000 0.00000
vt 0.40000 1.00000
vt 0.22500 0.00000
vt 0.45000 1.00000
vt 0.25000 0.00000
vt 0.50000 1.00000
vt 0.27500 0.00000
vt 0.55000 1.00000
vt 0.30000 0.00000
vt 0.60000 1.00000
vt 0.32500 0.00000
vt 0.65000 1.00000
vt 0.35000 0.00000
vt 0.70000 1.00000
vt 0.37500 0.00000
vt 0.75000 1.00000
vt 0.40000 0.00000
vt 0.80000 1.00000
vt 0.42500 0.00000
vt 0.85000 1.00000
vt 0.45000 0.00000
vt 0.90000 1.00000
vt 0.47500 0.00000
vt 0.95000 1.00000
vt 0.50000 0.00000
vt 1.00000 1.00000
vt 0.00000 0.00000
# 42 texture vertices

vn 0.00000 0.44721 -0.89443
vn 0.76169 0.51885 -0.38810
vn 0.27639 0.44721 -0.85065
vn 0.52573 0.44721 -0.72361
vn 0.72361 0.44721 -0.52573
vn 0.85065 0.44721 -0.27639
vn 0.89443 0.44721 -0.00000
vn 0.85065 0.44721 0.27639
vn 0.72361 0.44721 0.52573
vn -0.13373 0.51885 0.84434
vn 0.52573 0.44721 0.72361
vn 0.27639 0.44721 0.85065
vn -0.00000 0.44721 0.89443
vn -0.27639 0.44721 0.85065
vn -0.52573 0.44721 0.72361
vn -0.72361 0.44721 0.52573
vn -0.85065 0.44721 0.27639
vn -0.70196 0.49713 -0.51001
vn -0.89443 0.44721 -0.00000
vn -0.85065 0.44721 -0.27639
vn -0.72361 0.44721 -0.52573
vn -0.52573 0.44721 -0.72361
vn -0.27639 0.44721 -0.85065
vn 0.00000 -1.00000 0.00000
# 24 normal vertices

g cone
s 1
usemtl cone_mat
f 1/1/1 21/2/2 2/3/3
f 2/3/3 21/4/2 3/5/4
f 3/5/4 21/6/2 4/7/5
f 4/7/5 21/8/2 5/9/6
f 5/9/6 21/10/2 6/11/7
f 6/11/7 21/12/2 7/13/8
f 7/13/8 21/14/2 8/15/9
f 8/15/9 21/16/10 9/17/11
f 9/17/11 21/18/10 10/19/12
f 10/19/12 21/20/10 11/21/13
f 11/21/13 21/22/10 12/23/14
f 12/23/14 21/24/10 13/25/15
f 13/25/15 21/26/10 14/27/16
f 14/27/16 21/28/10 15/29/17
f 15/29/17 21/30/18 16/31/19
f 16/31/19 21/32/18 17/33/20
f 17/33/20 21/34/18 18/35/21
f 18/35/21 21/36/18 19/37/22
f 19/37/22 21/38/18 20/39/23
f 20/39/23 21/40/18 1/41/1
f 22/42/24 1/42/24 2/42/24
f 22/42/24 2/42/24 3/42/24
f 22/42/24 3/42/24 4/42/24
f 22/42/24 4/42/24 5/42/24
f 22/42/24 5/42/24 6/42/24
f 22/42/24 6/42/24 7/42/24
f 22/42/24 7/42/24 8/42/24
f 22/42/24 8/42/24 9/42/24
f 22/42/24 9/42/24 10/42/24
f 22/42/24 10/42/24 11/42/24
f 22/42/24 11/42/24 12/42/24
f 22/42/24 12/42/24 13/42/24
f 22/42/24 13/42/24 14/42/24
f 22/42/24 14/42/24 15/42/24
f 22/42/24 15/42/24 16/42/24
f 22/42/24 16/42/24 17/42/24
f 22/42/24 17/42/24 18/42/24
f 22/42/24 18/42/24 19/42/24
f 22/42/24 19/42/24 20/42/24
f 22/42/24 20/42/24 1/42/24
# 40 elements

