# Created by Metasequoia

mtllib cylinder.mtl

v 0.000000 100.000000 0.000000
v 0.000000 100.000000 -50.000000
v 7.821723 100.000000 -49.384418
v 15.450850 100.000000 -47.552826
v 22.699526 100.000000 -44.550327
v 29.389263 100.000000 -40.450851
v 35.355339 100.000000 -35.355339
v 40.450851 100.000000 -29.389263
v 44.550327 100.000000 -22.699526
v 47.552826 100.000000 -15.450850
v 49.384418 100.000000 -7.821723
v 50.000000 100.000000 0.000000
v 49.384418 100.000000 7.821723
v 47.552826 100.000000 15.450850
v 44.550327 100.000000 22.699526
v 40.450851 100.000000 29.389263
v 35.355339 100.000000 35.355339
v 29.389263 100.000000 40.450851
v 22.699526 100.000000 44.550327
v 15.450850 100.000000 47.552826
v 7.821723 100.000000 49.384418
v 0.000000 100.000000 50.000000
v -7.821723 100.000000 49.384418
v -15.450850 100.000000 47.552826
v -22.699526 100.000000 44.550327
v -29.389263 100.000000 40.450851
v -35.355339 100.000000 35.355339
v -40.450851 100.000000 29.389263
v -44.550327 100.000000 22.699526
v -47.552826 100.000000 15.450850
v -49.384418 100.000000 7.821723
v -50.000000 100.000000 0.000000
v -49.384418 100.000000 -7.821723
v -47.552826 100.000000 -15.450850
v -44.550327 100.000000 -22.699526
v -40.450851 100.000000 -29.389263
v -35.355339 100.000000 -35.355339
v -29.389263 100.000000 -40.450851
v -22.699526 100.000000 -44.550327
v -15.450850 100.000000 -47.552826
v -7.821723 100.000000 -49.384418
v 0.000000 -100.000000 -50.000000
v 7.821723 -100.000000 -49.384418
v 15.450850 -100.000000 -47.552826
v 22.699526 -100.000000 -44.550327
v 29.389263 -100.000000 -40.450851
v 35.355339 -100.000000 -35.355339
v 40.450851 -100.000000 -29.389263
v 44.550327 -100.000000 -22.699526
v 47.552826 -100.000000 -15.450850
v 49.384418 -100.000000 -7.821723
v 50.000000 -100.000000 0.000000
v 49.384418 -100.000000 7.821723
v 47.552826 -100.000000 15.450850
v 44.550327 -100.000000 22.699526
v 40.450851 -100.000000 29.389263
v 35.355339 -100.000000 35.355339
v 29.389263 -100.000000 40.450851
v 22.699526 -100.000000 44.550327
v 15.450850 -100.000000 47.552826
v 7.821723 -100.000000 49.384418
v 0.000000 -100.000000 50.000000
v -7.821723 -100.000000 49.384418
v -15.450850 -100.000000 47.552826
v -22.699526 -100.000000 44.550327
v -29.389263 -100.000000 40.450851
v -35.355339 -100.000000 35.355339
v -40.450851 -100.000000 29.389263
v -44.550327 -100.000000 22.699526
v -47.552826 -100.000000 15.450850
v -49.384418 -100.000000 7.821723
v -50.000000 -100.000000 -0.000000
v -49.384418 -100.000000 -7.821723
v -47.552826 -100.000000 -15.450850
v -44.550327 -100.000000 -22.699526
v -40.450851 -100.000000 -29.389263
v -35.355339 -100.000000 -35.355339
v -29.389263 -100.000000 -40.450851
v -22.699526 -100.000000 -44.550327
v -15.450850 -100.000000 -47.552826
v -7.821723 -100.000000 -49.384418
v 0.000000 -100.000000 0.000000
# 82 vertices

vt 0.00000 0.00000
vt 0.02500 0.00000
vt 0.02500 1.00000
vt 0.00000 1.00000
vt 0.05000 0.00000
vt 0.05000 1.00000
vt 0.07500 0.00000
vt 0.07500 1.00000
vt 0.10000 0.00000
vt 0.10000 1.00000
vt 0.12500 0.00000
vt 0.12500 1.00000
vt 0.15000 0.00000
vt 0.15000 1.00000
vt 0.17500 0.00000
vt 0.17500 1.00000
vt 0.20000 0.00000
vt 0.20000 1.00000
vt 0.22500 0.00000
vt 0.22500 1.00000
vt 0.25000 0.00000
vt 0.25000 1.00000
vt 0.27500 0.00000
vt 0.27500 1.00000
vt 0.30000 0.00000
vt 0.30000 1.00000
vt 0.32500 0.00000
vt 0.32500 1.00000
vt 0.35000 0.00000
vt 0.35000 1.00000
vt 0.37500 0.00000
vt 0.37500 1.00000
vt 0.40000 0.00000
vt 0.40000 1.00000
vt 0.42500 0.00000
vt 0.42500 1.00000
vt 0.45000 0.00000
vt 0.45000 1.00000
vt 0.47500 0.00000
vt 0.47500 1.00000
vt 0.50000 0.00000
vt 0.50000 1.00000
vt 0.52500 0.00000
vt 0.52500 1.00000
vt 0.55000 0.00000
vt 0.55000 1.00000
vt 0.57500 0.00000
vt 0.57500 1.00000
vt 0.60000 0.00000
vt 0.60000 1.00000
vt 0.62500 0.00000
vt 0.62500 1.00000
vt 0.65000 0.00000
vt 0.65000 1.00000
vt 0.67500 0.00000
vt 0.67500 1.00000
vt 0.70000 0.00000
vt 0.70000 1.00000
vt 0.72500 0.00000
vt 0.72500 1.00000
vt 0.75000 0.00000
vt 0.75000 1.00000
vt 0.77500 0.00000
vt 0.77500 1.00000
vt 0.80000 0.00000
vt 0.80000 1.00000
vt 0.82500 0.00000
vt 0.82500 1.00000
vt 0.85000 0.00000
vt 0.85000 1.00000
vt 0.87500 0.00000
vt 0.87500 1.00000
vt 0.90000 0.00000
vt 0.90000 1.00000
vt 0.92500 0.00000
vt 0.92500 1.00000
vt 0.95000 0.00000
vt 0.95000 1.00000
vt 0.97500 0.00000
vt 0.97500 1.00000
vt 1.00000 0.00000
vt 1.00000 1.00000
vt 0.01250 0.00000
vt 0.03750 0.00000
vt 0.06250 0.00000
vt 0.08750 0.00000
vt 0.11250 0.00000
vt 0.13750 0.00000
vt 0.16250 0.00000
vt 0.18750 0.00000
vt 0.21250 0.00000
vt 0.23750 0.00000
vt 0.26250 0.00000
vt 0.28750 0.00000
vt 0.31250 0.00000
vt 0.33750 0.00000
vt 0.36250 0.00000
vt 0.38750 0.00000
vt 0.41250 0.00000
vt 0.43750 0.00000
vt 0.46250 0.00000
vt 0.48750 0.00000
vt 0.51250 0.00000
vt 0.53750 0.00000
vt 0.56250 0.00000
vt 0.58750 0.00000
vt 0.61250 0.00000
vt 0.63750 0.00000
vt 0.66250 0.00000
vt 0.68750 0.00000
vt 0.71250 0.00000
vt 0.73750 0.00000
vt 0.76250 0.00000
vt 0.78750 0.00000
vt 0.81250 0.00000
vt 0.83750 0.00000
vt 0.86250 0.00000
vt 0.88750 0.00000
vt 0.91250 0.00000
vt 0.93750 0.00000
vt 0.96250 0.00000
vt 0.98750 0.00000
vt 0.01250 1.00000
vt 0.03750 1.00000
vt 0.06250 1.00000
vt 0.08750 1.00000
vt 0.11250 1.00000
vt 0.13750 1.00000
vt 0.16250 1.00000
vt 0.18750 1.00000
vt 0.21250 1.00000
vt 0.23750 1.00000
vt 0.26250 1.00000
vt 0.28750 1.00000
vt 0.31250 1.00000
vt 0.33750 1.00000
vt 0.36250 1.00000
vt 0.38750 1.00000
vt 0.41250 1.00000
vt 0.43750 1.00000
vt 0.46250 1.00000
vt 0.48750 1.00000
vt 0.51250 1.00000
vt 0.53750 1.00000
vt 0.56250 1.00000
vt 0.58750 1.00000
vt 0.61250 1.00000
vt 0.63750 1.00000
vt 0.66250 1.00000
vt 0.68750 1.00000
vt 0.71250 1.00000
vt 0.73750 1.00000
vt 0.76250 1.00000
vt 0.78750 1.00000
vt 0.81250 1.00000
vt 0.83750 1.00000
vt 0.86250 1.00000
vt 0.88750 1.00000
vt 0.91250 1.00000
vt 0.93750 1.00000
vt 0.96250 1.00000
vt 0.98750 1.00000
# 162 texture vertices

vn 0.00000 0.00000 -1.00000
vn 0.15643 0.00000 -0.98769
vn 0.30902 0.00000 -0.95106
vn 0.45399 0.00000 -0.89101
vn 0.58779 0.00000 -0.80902
vn 0.70711 0.00000 -0.70711
vn 0.80902 0.00000 -0.58779
vn 0.89101 0.00000 -0.45399
vn 0.95106 0.00000 -0.30902
vn 0.98769 0.00000 -0.15643
vn 1.00000 0.00000 0.00000
vn 0.98769 0.00000 0.15643
vn 0.95106 0.00000 0.30902
vn 0.89101 0.00000 0.45399
vn 0.80902 0.00000 0.58779
vn 0.70711 0.00000 0.70711
vn 0.58779 0.00000 0.80902
vn 0.45399 0.00000 0.89101
vn 0.30902 0.00000 0.95106
vn 0.15643 0.00000 0.98769
vn 0.00000 0.00000 1.00000
vn -0.15643 0.00000 0.98769
vn -0.30902 0.00000 0.95106
vn -0.45399 0.00000 0.89101
vn -0.58779 0.00000 0.80902
vn -0.70711 0.00000 0.70711
vn -0.80902 0.00000 0.58779
vn -0.89101 0.00000 0.45399
vn -0.95106 0.00000 0.30902
vn -0.98769 0.00000 0.15643
vn -1.00000 0.00000 0.00000
vn -0.98769 0.00000 -0.15643
vn -0.95106 0.00000 -0.30902
vn -0.89101 0.00000 -0.45399
vn -0.80902 0.00000 -0.58779
vn -0.70711 0.00000 -0.70711
vn -0.58779 0.00000 -0.80902
vn -0.45399 0.00000 -0.89101
vn -0.30902 0.00000 -0.95106
vn -0.15643 0.00000 -0.98769
vn 0.00000 1.00000 0.00000
vn 0.00000 1.00000 0.00000
vn 0.00000 -1.00000 0.00000
vn 0.00000 -1.00000 -0.00000
# 44 normal vertices

g cylinder
s 1
usemtl cylinder_mat
f 43/3/2 42/4/1 3/2/2
f 42/4/1 2/1/1 3/2/2
f 44/6/3 43/3/2 4/5/3
f 43/3/2 3/2/2 4/5/3
f 45/8/4 44/6/3 5/7/4
f 44/6/3 4/5/3 5/7/4
f 46/10/5 45/8/4 6/9/5
f 45/8/4 5/7/4 6/9/5
f 47/12/6 46/10/5 7/11/6
f 46/10/5 6/9/5 7/11/6
f 48/14/7 47/12/6 8/13/7
f 47/12/6 7/11/6 8/13/7
f 49/16/8 48/14/7 9/15/8
f 48/14/7 8/13/7 9/15/8
f 50/18/9 49/16/8 10/17/9
f 49/16/8 9/15/8 10/17/9
f 51/20/10 50/18/9 11/19/10
f 50/18/9 10/17/9 11/19/10
f 52/22/11 51/20/10 12/21/11
f 51/20/10 11/19/10 12/21/11
f 53/24/12 52/22/11 13/23/12
f 52/22/11 12/21/11 13/23/12
f 54/26/13 53/24/12 14/25/13
f 53/24/12 13/23/12 14/25/13
f 55/28/14 54/26/13 15/27/14
f 54/26/13 14/25/13 15/27/14
f 56/30/15 55/28/14 16/29/15
f 55/28/14 15/27/14 16/29/15
f 57/32/16 56/30/15 17/31/16
f 56/30/15 16/29/15 17/31/16
f 58/34/17 57/32/16 18/33/17
f 57/32/16 17/31/16 18/33/17
f 59/36/18 58/34/17 19/35/18
f 58/34/17 18/33/17 19/35/18
f 60/38/19 59/36/18 20/37/19
f 59/36/18 19/35/18 20/37/19
f 61/40/20 60/38/19 21/39/20
f 60/38/19 20/37/19 21/39/20
f 62/42/21 61/40/20 22/41/21
f 61/40/20 21/39/20 22/41/21
f 63/44/22 62/42/21 23/43/22
f 62/42/21 22/41/21 23/43/22
f 64/46/23 63/44/22 24/45/23
f 63/44/22 23/43/22 24/45/23
f 65/48/24 64/46/23 25/47/24
f 64/46/23 24/45/23 25/47/24
f 66/50/25 65/48/24 26/49/25
f 65/48/24 25/47/24 26/49/25
f 67/52/26 66/50/25 27/51/26
f 66/50/25 26/49/25 27/51/26
f 68/54/27 67/52/26 28/53/27
f 67/52/26 27/51/26 28/53/27
f 69/56/28 68/54/27 29/55/28
f 68/54/27 28/53/27 29/55/28
f 70/58/29 69/56/28 30/57/29
f 69/56/28 29/55/28 30/57/29
f 71/60/30 70/58/29 31/59/30
f 70/58/29 30/57/29 31/59/30
f 72/62/31 71/60/30 32/61/31
f 71/60/30 31/59/30 32/61/31
f 73/64/32 72/62/31 33/63/32
f 72/62/31 32/61/31 33/63/32
f 74/66/33 73/64/32 34/65/33
f 73/64/32 33/63/32 34/65/33
f 75/68/34 74/66/33 35/67/34
f 74/66/33 34/65/33 35/67/34
f 76/70/35 75/68/34 36/69/35
f 75/68/34 35/67/34 36/69/35
f 77/72/36 76/70/35 37/71/36
f 76/70/35 36/69/35 37/71/36
f 78/74/37 77/72/36 38/73/37
f 77/72/36 37/71/36 38/73/37
f 79/76/38 78/74/37 39/75/38
f 78/74/37 38/73/37 39/75/38
f 80/78/39 79/76/38 40/77/39
f 79/76/38 39/75/38 40/77/39
f 81/80/40 80/78/39 41/79/40
f 80/78/39 40/77/39 41/79/40
f 42/82/1 81/80/40 2/81/1
f 81/80/40 41/79/40 2/81/1
f 1/83/41 3/2/42 2/1/41
f 1/84/41 4/5/41 3/2/42
f 1/85/41 5/7/41 4/5/41
f 1/86/41 6/9/42 5/7/41
f 1/87/41 7/11/41 6/9/42
f 1/88/41 8/13/42 7/11/41
f 1/89/41 9/15/41 8/13/42
f 1/90/41 10/17/41 9/15/41
f 1/91/41 11/19/42 10/17/41
f 1/92/41 12/21/41 11/19/42
f 1/93/41 13/23/42 12/21/41
f 1/94/41 14/25/41 13/23/42
f 1/95/41 15/27/41 14/25/41
f 1/96/41 16/29/42 15/27/41
f 1/97/41 17/31/41 16/29/42
f 1/98/41 18/33/42 17/31/41
f 1/99/41 19/35/41 18/33/42
f 1/100/41 20/37/41 19/35/41
f 1/101/41 21/39/42 20/37/41
f 1/102/41 22/41/41 21/39/42
f 1/103/41 23/43/42 22/41/41
f 1/104/41 24/45/41 23/43/42
f 1/105/41 25/47/41 24/45/41
f 1/106/41 26/49/42 25/47/41
f 1/107/41 27/51/41 26/49/42
f 1/108/41 28/53/42 27/51/41
f 1/109/41 29/55/41 28/53/42
f 1/110/41 30/57/41 29/55/41
f 1/111/41 31/59/42 30/57/41
f 1/112/41 32/61/41 31/59/42
f 1/113/41 33/63/42 32/61/41
f 1/114/41 34/65/41 33/63/42
f 1/115/41 35/67/41 34/65/41
f 1/116/41 36/69/42 35/67/41
f 1/117/41 37/71/41 36/69/42
f 1/118/41 38/73/42 37/71/41
f 1/119/41 39/75/41 38/73/42
f 1/120/41 40/77/41 39/75/41
f 1/121/41 41/79/42 40/77/41
f 1/122/41 2/81/41 41/79/42
f 82/123/43 42/4/43 43/3/44
f 82/124/43 43/3/44 44/6/43
f 82/125/43 44/6/43 45/8/43
f 82/126/43 45/8/43 46/10/44
f 82/127/43 46/10/44 47/12/43
f 82/128/43 47/12/43 48/14/44
f 82/129/43 48/14/44 49/16/43
f 82/130/43 49/16/43 50/18/43
f 82/131/43 50/18/43 51/20/44
f 82/132/43 51/20/44 52/22/43
f 82/133/43 52/22/43 53/24/44
f 82/134/43 53/24/44 54/26/43
f 82/135/43 54/26/43 55/28/43
f 82/136/43 55/28/43 56/30/44
f 82/137/43 56/30/44 57/32/43
f 82/138/43 57/32/43 58/34/44
f 82/139/43 58/34/44 59/36/43
f 82/140/43 59/36/43 60/38/43
f 82/141/43 60/38/43 61/40/44
f 82/142/43 61/40/44 62/42/43
f 82/143/43 62/42/43 63/44/44
f 82/144/43 63/44/44 64/46/43
f 82/145/43 64/46/43 65/48/43
f 82/146/43 65/48/43 66/50/44
f 82/147/43 66/50/44 67/52/43
f 82/148/43 67/52/43 68/54/44
f 82/149/43 68/54/44 69/56/43
f 82/150/43 69/56/43 70/58/43
f 82/151/43 70/58/43 71/60/44
f 82/152/43 71/60/44 72/62/43
f 82/153/43 72/62/43 73/64/44
f 82/154/43 73/64/44 74/66/43
f 82/155/43 74/66/43 75/68/43
f 82/156/43 75/68/43 76/70/44
f 82/157/43 76/70/44 77/72/43
f 82/158/43 77/72/43 78/74/44
f 82/159/43 78/74/44 79/76/43
f 82/160/43 79/76/43 80/78/43
f 82/161/43 80/78/43 81/80/44
f 82/162/43 81/80/44 42/82/43
# 160 elements

